<svg width="22" height="22" viewBox="0 0 22 22" fill="none" xmlns="http://www.w3.org/2000/svg">
<path d="M14 21.75H8C2.57 21.75 0.25 19.43 0.25 14V8C0.25 2.57 2.57 0.25 8 0.25H10C10.41 0.25 10.75 0.59 10.75 1C10.75 1.41 10.41 1.75 10 1.75H8C3.39 1.75 1.75 3.39 1.75 8V14C1.75 18.61 3.39 20.25 8 20.25H14C18.61 20.25 20.25 18.61 20.25 14V12C20.25 11.59 20.59 11.25 21 11.25C21.41 11.25 21.75 11.59 21.75 12V14C21.75 19.43 19.43 21.75 14 21.75Z" fill="#10299C"/>
<path d="M7.50008 16.6905C6.89008 16.6905 6.33008 16.4705 5.92008 16.0705C5.43008 15.5805 5.22008 14.8705 5.33008 14.1205L5.76008 11.1105C5.84008 10.5305 6.22008 9.7805 6.63008 9.3705L14.5101 1.49055C16.5001 -0.499454 18.5201 -0.499454 20.5101 1.49055C21.6001 2.58055 22.0901 3.69055 21.9901 4.80055C21.9001 5.70055 21.4201 6.58055 20.5101 7.48055L12.6301 15.3605C12.2201 15.7705 11.4701 16.1505 10.8901 16.2305L7.88008 16.6605C7.75008 16.6905 7.62008 16.6905 7.50008 16.6905ZM15.5701 2.55055L7.69008 10.4305C7.50008 10.6205 7.28008 11.0605 7.24008 11.3205L6.81008 14.3305C6.77008 14.6205 6.83008 14.8605 6.98008 15.0105C7.13008 15.1605 7.37008 15.2205 7.66008 15.1805L10.6701 14.7505C10.9301 14.7105 11.3801 14.4905 11.5601 14.3005L19.4401 6.42055C20.0901 5.77055 20.4301 5.19055 20.4801 4.65055C20.5401 4.00055 20.2001 3.31055 19.4401 2.54055C17.8401 0.940549 16.7401 1.39055 15.5701 2.55055Z" fill="#10299C"/>
<path d="M18.8501 8.83027C18.7801 8.83027 18.7101 8.82027 18.6501 8.80027C16.0201 8.06027 13.9301 5.97027 13.1901 3.34027C13.0801 2.94027 13.3101 2.53027 13.7101 2.41027C14.1101 2.30027 14.5201 2.53027 14.6301 2.93027C15.2301 5.06027 16.9201 6.75027 19.0501 7.35027C19.4501 7.46027 19.6801 7.88027 19.5701 8.28027C19.4801 8.62027 19.1801 8.83027 18.8501 8.83027Z" fill="#10299C"/>
</svg>
